<svg xmlns="http://www.w3.org/2000/svg" viewBox="0 0 540 380" width="100%" height="100%">
  <!-- Pure White Background -->
  <rect width="540" height="380" fill="#ffffff"/>
  <rect width="536" height="376" x="2" y="2" fill="none" stroke="#e2e8f0" stroke-width="1.5" rx="8"/>

  <!-- Title Header -->
  <text x="270" y="32" fill="#0f172a" font-family="'Segoe UI', sans-serif" font-size="16" font-weight="800" text-anchor="middle">AI-READY CYBERSECURITY TEAM STRUCTURE</text>
  <text x="270" y="52" fill="#64748b" font-family="'Segoe UI', sans-serif" font-size="11" text-anchor="middle">Cross-Functional Architecture for CISOs</text>

  <!-- CISO Box -->
  <g transform="translate(120, 70)">
    <rect width="300" height="50" fill="#1e293b" rx="6"/>
    <text x="150" y="20" fill="#ffffff" font-family="'Segoe UI', sans-serif" font-size="14" font-weight="800" text-anchor="middle">CHIEF INFORMATION SECURITY OFFICER</text>
    <text x="150" y="38" fill="#94a3b8" font-family="'Segoe UI', sans-serif" font-size="11" text-anchor="middle">Board Reporting • Material Risk • AI Strategy</text>
  </g>

  <!-- Connecting Lines -->
  <path d="M 270 120 L 270 135 M 75 135 L 465 135 M 75 135 L 75 150 M 205 135 L 205 150 M 335 135 L 335 150 M 465 135 L 465 150" stroke="#94a3b8" stroke-width="2" fill="none"/>

  <!-- Pillars -->
  <!-- 1. OFFENSIVE -->
  <g transform="translate(15, 150)">
    <rect width="120" height="190" fill="#fef2f2" stroke="#ef4444" stroke-width="2" rx="6"/>
    <rect width="120" height="30" fill="#ef4444" rx="6" stroke="none" />
    <rect width="120" height="10" y="20" fill="#ef4444" stroke="none" />
    <text x="60" y="20" fill="#ffffff" font-family="'Segoe UI', sans-serif" font-size="11" font-weight="800" text-anchor="middle">OFFENSIVE AI</text>
    
    <text x="10" y="50" fill="#0f172a" font-family="'Segoe UI', sans-serif" font-size="11" font-weight="700">AI Red Teamer</text>
    <text x="10" y="65" fill="#475569" font-family="'Segoe UI', sans-serif" font-size="11">Jailbreak/Inversion</text>
    
    <text x="10" y="90" fill="#0f172a" font-family="'Segoe UI', sans-serif" font-size="11" font-weight="700">Prompt Eval</text>
    <text x="10" y="105" fill="#475569" font-family="'Segoe UI', sans-serif" font-size="11">PyRIT CI/CD</text>
    
    <text x="10" y="130" fill="#0f172a" font-family="'Segoe UI', sans-serif" font-size="11" font-weight="700">Agent Pen Test</text>
    <text x="10" y="145" fill="#475569" font-family="'Segoe UI', sans-serif" font-size="11">MCP Hijacking</text>
    
    <rect x="0" y="165" width="120" height="25" fill="#fee2e2" rx="0" ry="0"/>
    <text x="60" y="182" fill="#b91c1c" font-family="'Segoe UI', sans-serif" font-size="11" font-weight="700" text-anchor="middle">Continuous Probe</text>
  </g>

  <!-- 2. AI-NATIVE DEFENSE -->
  <g transform="translate(145, 150)">
    <rect width="120" height="190" fill="#f0f9ff" stroke="#0284c7" stroke-width="2" rx="6"/>
    <rect width="120" height="30" fill="#0284c7" rx="6" stroke="none" />
    <rect width="120" height="10" y="20" fill="#0284c7" stroke="none" />
    <text x="60" y="20" fill="#ffffff" font-family="'Segoe UI', sans-serif" font-size="11" font-weight="800" text-anchor="middle">DEFENSE</text>
    
    <text x="10" y="50" fill="#0f172a" font-family="'Segoe UI', sans-serif" font-size="11" font-weight="700">Gen 4 SOC</text>
    <text x="10" y="65" fill="#475569" font-family="'Segoe UI', sans-serif" font-size="11">Auto Triage</text>
    
    <text x="10" y="90" fill="#0f172a" font-family="'Segoe UI', sans-serif" font-size="11" font-weight="700">Threat Hunter</text>
    <text x="10" y="105" fill="#475569" font-family="'Segoe UI', sans-serif" font-size="11">Graph Queries</text>
    
    <text x="10" y="130" fill="#0f172a" font-family="'Segoe UI', sans-serif" font-size="11" font-weight="700">SOAR Eng</text>
    <text x="10" y="145" fill="#475569" font-family="'Segoe UI', sans-serif" font-size="11">47s Containment</text>
    
    <rect x="0" y="165" width="120" height="25" fill="#e0f2fe" rx="0" ry="0"/>
    <text x="60" y="182" fill="#0369a1" font-family="'Segoe UI', sans-serif" font-size="11" font-weight="700" text-anchor="middle">Sub-Min Contain</text>
  </g>

  <!-- 3. SAFETY -->
  <g transform="translate(275, 150)">
    <rect width="120" height="190" fill="#f0fdf4" stroke="#16a34a" stroke-width="2" rx="6"/>
    <rect width="120" height="30" fill="#16a34a" rx="6" stroke="none" />
    <rect width="120" height="10" y="20" fill="#16a34a" stroke="none" />
    <text x="60" y="20" fill="#ffffff" font-family="'Segoe UI', sans-serif" font-size="11" font-weight="800" text-anchor="middle">SAFETY</text>
    
    <text x="10" y="50" fill="#0f172a" font-family="'Segoe UI', sans-serif" font-size="11" font-weight="700">Safety Arch</text>
    <text x="10" y="65" fill="#475569" font-family="'Segoe UI', sans-serif" font-size="11">NeMo Guardrails</text>
    
    <text x="10" y="90" fill="#0f172a" font-family="'Segoe UI', sans-serif" font-size="11" font-weight="700">LLM Gateway</text>
    <text x="10" y="105" fill="#475569" font-family="'Segoe UI', sans-serif" font-size="11">Token Routing</text>
    
    <text x="10" y="130" fill="#0f172a" font-family="'Segoe UI', sans-serif" font-size="11" font-weight="700">AI Auditor</text>
    <text x="10" y="145" fill="#475569" font-family="'Segoe UI', sans-serif" font-size="11">SaaS Model Vet</text>
    
    <rect x="0" y="165" width="120" height="25" fill="#dcfce7" rx="0" ry="0"/>
    <text x="60" y="182" fill="#15803d" font-family="'Segoe UI', sans-serif" font-size="11" font-weight="700" text-anchor="middle">ZDR Trust</text>
  </g>

  <!-- 4. GRC -->
  <g transform="translate(405, 150)">
    <rect width="120" height="190" fill="#faf5ff" stroke="#9333ea" stroke-width="2" rx="6"/>
    <rect width="120" height="30" fill="#9333ea" rx="6" stroke="none" />
    <rect width="120" height="10" y="20" fill="#9333ea" stroke="none" />
    <text x="60" y="20" fill="#ffffff" font-family="'Segoe UI', sans-serif" font-size="11" font-weight="800" text-anchor="middle">GOVERNANCE</text>
    
    <text x="10" y="50" fill="#0f172a" font-family="'Segoe UI', sans-serif" font-size="11" font-weight="700">AI Compliance</text>
    <text x="10" y="65" fill="#475569" font-family="'Segoe UI', sans-serif" font-size="11">EU AI Act/ISO</text>
    
    <text x="10" y="90" fill="#0f172a" font-family="'Segoe UI', sans-serif" font-size="11" font-weight="700">SEC Reporting</text>
    <text x="10" y="105" fill="#475569" font-family="'Segoe UI', sans-serif" font-size="11">4-day 8-K Flow</text>
    
    <text x="10" y="130" fill="#0f172a" font-family="'Segoe UI', sans-serif" font-size="11" font-weight="700">Risk Actuary</text>
    <text x="10" y="145" fill="#475569" font-family="'Segoe UI', sans-serif" font-size="11">ROSI Modeling</text>
    
    <rect x="0" y="165" width="120" height="25" fill="#f3e8ff" rx="0" ry="0"/>
    <text x="60" y="182" fill="#7e22ce" font-family="'Segoe UI', sans-serif" font-size="11" font-weight="700" text-anchor="middle">Defensibility</text>
  </g>
</svg>
